<svg xmlns="http://www.w3.org/2000/svg" viewBox="0 0 800 500" fill="none">
  <rect width="800" height="500" fill="#f8fafc"/>
  <rect x="40" y="40" width="720" height="420" rx="12" fill="#fff" stroke="#e2e8f0"/>
  <rect x="60" y="60" width="200" height="16" rx="4" fill="#0f172a"/>
  <rect x="60" y="88" width="680" height="120" rx="8" fill="#1e293b"/>
  <rect x="80" y="108" width="120" height="10" rx="2" fill="#94a3b8"/>
  <rect x="80" y="128" width="400" height="12" rx="3" fill="#38bdf8"/>
  <rect x="80" y="152" width="520" height="10" rx="2" fill="#64748b"/>
  <rect x="80" y="172" width="480" height="10" rx="2" fill="#64748b"/>
  <rect x="60" y="224" width="320" height="200" rx="8" fill="#f1f5f9" stroke="#e2e8f0"/>
  <rect x="80" y="244" width="140" height="12" rx="3" fill="#334155"/>
  <rect x="80" y="268" width="280" height="8" rx="2" fill="#cbd5e1"/>
  <rect x="80" y="284" width="260" height="8" rx="2" fill="#cbd5e1"/>
  <rect x="80" y="300" width="240" height="8" rx="2" fill="#cbd5e1"/>
  <rect x="80" y="324" width="100" height="20" rx="4" fill="#22c55e"/>
  <rect x="188" y="324" width="80" height="20" rx="4" fill="#3b82f6"/>
  <rect x="400" y="224" width="340" height="200" rx="8" fill="#fff7ed" stroke="#fed7aa"/>
  <rect x="420" y="244" width="120" height="12" rx="3" fill="#9a3412"/>
  <text x="420" y="280" font-family="monospace" font-size="11" fill="#c2410c">"@type": "Car"</text>
  <text x="420" y="300" font-family="monospace" font-size="11" fill="#c2410c">"offers": { "price" }</text>
  <text x="420" y="320" font-family="monospace" font-size="11" fill="#c2410c">hreflang: en, uk, ru, no</text>
  <text x="420" y="340" font-family="monospace" font-size="11" fill="#c2410c">sitemap.xml + canonical</text>
</svg>