<svg xmlns="http://www.w3.org/2000/svg" viewBox="0 0 800 500" fill="none">
  <rect width="800" height="500" fill="#f8f9fa"/>
  <rect width="200" height="500" fill="#212529"/>
  <rect x="20" y="24" width="120" height="20" rx="4" fill="#e30613"/>
  <rect x="20" y="64" width="160" height="28" rx="6" fill="#fff" opacity=".12"/>
  <rect x="20" y="104" width="160" height="24" rx="4" fill="#fff" opacity=".06"/>
  <rect x="20" y="136" width="160" height="24" rx="4" fill="#fff" opacity=".06"/>
  <rect x="20" y="168" width="160" height="24" rx="4" fill="#fff" opacity=".06"/>
  <rect x="20" y="200" width="160" height="24" rx="4" fill="#fff" opacity=".06"/>
  <rect x="220" y="0" width="580" height="56" fill="#fff" stroke="#dee2e6"/>
  <rect x="240" y="18" width="140" height="20" rx="4" fill="#dee2e6"/>
  <rect x="220" y="72" width="560" height="408" rx="0" fill="#fff" stroke="#dee2e6"/>
  <rect x="240" y="92" width="200" height="24" rx="4" fill="#212529"/>
  <rect x="240" y="132" width="520" height="36" rx="6" fill="#f8f9fa" stroke="#dee2e6"/>
  <rect x="252" y="144" width="80" height="12" rx="2" fill="#adb5bd"/>
  <rect x="360" y="144" width="60" height="12" rx="2" fill="#adb5bd"/>
  <rect x="448" y="144" width="60" height="12" rx="2" fill="#adb5bd"/>
  <rect x="240" y="184" width="520" height="40" rx="4" fill="#fff" stroke="#eee"/>
  <rect x="252" y="198" width="120" height="12" rx="2" fill="#dee2e6"/>
  <rect x="400" y="198" width="80" height="12" rx="2" fill="#dee2e6"/>
  <rect x="500" y="198" width="60" height="12" rx="2" fill="#2e9e5b"/>
  <rect x="240" y="236" width="520" height="40" rx="4" fill="#fff" stroke="#eee"/>
  <rect x="252" y="250" width="140" height="12" rx="2" fill="#dee2e6"/>
  <rect x="400" y="250" width="80" height="12" rx="2" fill="#dee2e6"/>
  <rect x="500" y="250" width="60" height="12" rx="2" fill="#2e9e5b"/>
  <rect x="240" y="288" width="520" height="40" rx="4" fill="#fff" stroke="#eee"/>
  <rect x="252" y="302" width="100" height="12" rx="2" fill="#dee2e6"/>
  <rect x="400" y="302" width="80" height="12" rx="2" fill="#dee2e6"/>
  <rect x="500" y="302" width="60" height="12" rx="2" fill="#2e9e5b"/>
  <rect x="640" y="92" width="120" height="36" rx="6" fill="#e30613"/>
</svg>