<svg xmlns="http://www.w3.org/2000/svg" viewBox="0 0 360 500" fill="none">
  <rect width="360" height="500" rx="24" fill="#111"/>
  <rect x="8" y="8" width="344" height="484" rx="20" fill="#fff"/>
  <rect x="120" y="16" width="120" height="4" rx="2" fill="#ddd"/>
  <rect x="16" y="36" width="64" height="14" rx="3" fill="#e30613"/>
  <rect x="280" y="34" width="56" height="18" rx="6" fill="#111"/>
  <rect x="16" y="60" width="72" height="20" rx="10" fill="#111"/>
  <rect x="96" y="60" width="80" height="20" rx="10" fill="#fff" stroke="#ddd"/>
  <rect x="16" y="88" width="328" height="32" rx="8" fill="#f5f5f5" stroke="#ddd"/>
  <rect x="16" y="132" width="328" height="120" rx="10" fill="#fff" stroke="#e5e5e5"/>
  <rect x="16" y="132" width="328" height="72" rx="10 10 0 0" fill="url(#m)"/>
  <rect x="28" y="214" width="200" height="12" rx="3" fill="#333"/>
  <rect x="28" y="232" width="80" height="14" rx="4" fill="#2e9e5b"/>
  <rect x="16" y="264" width="328" height="120" rx="10" fill="#fff" stroke="#e5e5e5"/>
  <rect x="16" y="264" width="328" height="72" rx="10 10 0 0" fill="url(#m2)"/>
  <rect x="28" y="346" width="180" height="12" rx="3" fill="#333"/>
  <rect x="28" y="364" width="90" height="14" rx="4" fill="#2e9e5b"/>
  <rect x="16" y="396" width="328" height="44" rx="8" fill="#111"/>
  <defs>
    <linearGradient id="m" x1="0" y1="0" x2="1" y2="1"><stop stop-color="#2c3e50"/><stop offset="1" stop-color="#c0392b"/></linearGradient>
    <linearGradient id="m2" x1="0" y1="0" x2="1" y2="1"><stop stop-color="#1a1a2e"/><stop offset="1" stop-color="#0f3460"/></linearGradient>
  </defs>
</svg>