<svg xmlns="http://www.w3.org/2000/svg" viewBox="0 0 800 500" fill="none">
  <rect width="800" height="500" fill="#fafafa"/>
  <rect width="800" height="120" fill="#fff" stroke="#e5e5e5"/>
  <rect x="20" y="20" width="64" height="22" rx="11" fill="#111"/>
  <rect x="92" y="20" width="72" height="22" rx="11" fill="#fff" stroke="#ddd"/>
  <rect x="20" y="52" width="400" height="32" rx="8" fill="#f5f5f5" stroke="#ddd"/>
  <rect x="430" y="56" width="80" height="24" rx="6" fill="#111"/>
  <rect y="120" width="800" height="200" fill="#f0f0f0" stroke="#e5e5e5"/>
  <rect x="20" y="136" width="760" height="168" rx="10" fill="#fff" stroke="#ddd"/>
  <rect x="36" y="152" width="170" height="56" rx="6" fill="#f8f8f8" stroke="#eee"/>
  <rect x="220" y="152" width="170" height="56" rx="6" fill="#f8f8f8" stroke="#eee"/>
  <rect x="404" y="152" width="170" height="56" rx="6" fill="#f8f8f8" stroke="#eee"/>
  <rect x="588" y="152" width="176" height="56" rx="6" fill="#f8f8f8" stroke="#eee"/>
  <rect x="36" y="224" width="170" height="56" rx="6" fill="#f8f8f8" stroke="#eee"/>
  <rect x="220" y="224" width="170" height="56" rx="6" fill="#f8f8f8" stroke="#eee"/>
  <rect x="404" y="224" width="170" height="56" rx="6" fill="#f8f8f8" stroke="#eee"/>
  <rect x="588" y="224" width="176" height="56" rx="6" fill="#f8f8f8" stroke="#eee"/>
  <rect x="620" y="276" width="144" height="32" rx="6" fill="#e30613"/>
  <rect y="320" width="800" height="180" fill="#fff"/>
  <rect x="20" y="336" width="760" height="90" rx="10" fill="#fff" stroke="#e5e5e5"/>
  <rect x="20" y="336" width="160" height="90" rx="10 0 0 10" fill="url(#f)"/>
  <rect x="196" y="350" width="240" height="12" rx="3" fill="#ddd"/>
  <rect x="196" y="372" width="160" height="10" rx="3" fill="#eee"/>
  <rect x="196" y="396" width="90" height="16" rx="4" fill="#2e9e5b"/>
  <defs><linearGradient id="f" x1="0" y1="0" x2="1" y2="1"><stop stop-color="#2c3e50"/><stop offset="1" stop-color="#e74c3c"/></linearGradient></defs>
</svg>