<svg xmlns="http://www.w3.org/2000/svg" viewBox="0 0 800 500" fill="none">
  <rect width="800" height="500" fill="#fff"/>
  <rect width="800" height="36" fill="#fff" stroke="#e5e5e5"/>
  <rect x="16" y="10" width="72" height="16" rx="4" fill="#e30613"/>
  <rect x="20" y="52" width="480" height="280" rx="12" fill="url(#car)"/>
  <rect x="20" y="348" width="72" height="48" rx="6" fill="#eee" stroke="#ddd"/>
  <rect x="100" y="348" width="72" height="48" rx="6" fill="#eee" stroke="#ddd"/>
  <rect x="180" y="348" width="72" height="48" rx="6" fill="#111" opacity=".15" stroke="#111"/>
  <rect x="520" y="52" width="260" height="28" rx="6" fill="#111"/>
  <rect x="520" y="92" width="180" height="36" rx="6" fill="#2e9e5b"/>
  <rect x="520" y="140" width="120" height="12" rx="3" fill="#eee"/>
  <rect x="520" y="168" width="260" height="1" fill="#e5e5e5"/>
  <rect x="520" y="184" width="80" height="10" rx="2" fill="#ccc"/>
  <rect x="520" y="204" width="120" height="10" rx="2" fill="#eee"/>
  <rect x="520" y="224" width="80" height="10" rx="2" fill="#ccc"/>
  <rect x="620" y="204" width="100" height="10" rx="2" fill="#eee"/>
  <rect x="520" y="260" width="260" height="80" rx="8" fill="#f5f5f5"/>
  <rect x="536" y="276" width="228" height="8" rx="2" fill="#ddd"/>
  <rect x="536" y="292" width="200" height="8" rx="2" fill="#eee"/>
  <rect x="536" y="308" width="220" height="8" rx="2" fill="#eee"/>
  <defs><linearGradient id="car" x1="0" y1="0" x2="1" y2="1"><stop stop-color="#34495e"/><stop offset="1" stop-color="#7f8c8d"/></linearGradient></defs>
</svg>