<svg xmlns="http://www.w3.org/2000/svg" viewBox="0 0 800 500" fill="none">
  <rect width="800" height="500" fill="#f5f5f5"/>
  <rect width="800" height="36" fill="#fff" stroke="#e5e5e5"/>
  <rect x="16" y="10" width="72" height="16" rx="4" fill="#e30613"/>
  <rect x="100" y="12" width="48" height="12" rx="3" fill="#eee"/>
  <rect x="156" y="12" width="48" height="12" rx="3" fill="#eee"/>
  <rect x="680" y="8" width="100" height="20" rx="6" fill="#111"/>
  <rect y="36" width="800" height="88" fill="#fff" stroke="#e5e5e5"/>
  <rect x="20" y="48" width="56" height="22" rx="11" fill="#111"/>
  <rect x="84" y="48" width="64" height="22" rx="11" fill="#fff" stroke="#ddd"/>
  <rect x="20" y="78" width="72" height="20" rx="10" fill="#111"/>
  <rect x="100" y="78" width="80" height="20" rx="10" fill="#fff" stroke="#ddd"/>
  <rect x="188" y="78" width="90" height="20" rx="10" fill="#fff" stroke="#ddd"/>
  <rect x="20" y="104" width="520" height="12" rx="4" fill="#eee"/>
  <rect y="124" width="800" height="376" fill="#fafafa"/>
  <rect x="20" y="140" width="760" height="100" rx="10" fill="#fff" stroke="#e5e5e5"/>
  <rect x="20" y="140" width="180" height="100" rx="10 0 0 10" fill="url(#g1)"/>
  <rect x="216" y="152" width="280" height="14" rx="4" fill="#ddd"/>
  <rect x="216" y="174" width="200" height="10" rx="3" fill="#eee"/>
  <rect x="216" y="200" width="100" height="18" rx="4" fill="#2e9e5b"/>
  <rect x="216" y="224" width="60" height="8" rx="2" fill="#eee"/>
  <rect x="284" y="224" width="60" height="8" rx="2" fill="#eee"/>
  <rect x="352" y="224" width="60" height="8" rx="2" fill="#eee"/>
  <rect x="20" y="256" width="760" height="100" rx="10" fill="#fff" stroke="#e5e5e5"/>
  <rect x="20" y="256" width="180" height="100" rx="10 0 0 10" fill="url(#g2)"/>
  <rect x="216" y="268" width="300" height="14" rx="4" fill="#ddd"/>
  <rect x="216" y="290" width="220" height="10" rx="3" fill="#eee"/>
  <rect x="216" y="316" width="110" height="18" rx="4" fill="#2e9e5b"/>
  <defs>
    <linearGradient id="g1" x1="0" y1="0" x2="1" y2="1"><stop stop-color="#2c3e50"/><stop offset="1" stop-color="#c0392b"/></linearGradient>
    <linearGradient id="g2" x1="0" y1="0" x2="1" y2="1"><stop stop-color="#1a1a2e"/><stop offset="1" stop-color="#16213e"/></linearGradient>
  </defs>
</svg>